<svg version="1.1" id="Layer_1" xmlns="http://www.w3.org/2000/svg" xmlns:xlink="http://www.w3.org/1999/xlink" x="0px" y="0px"
	 width="100%" viewBox="0 0 512 512" enable-background="new 0 0 512 512" xml:space="preserve">
<path fill="#000000" opacity="1.000000" stroke="none" 
	d="
M278.000000,513.000000 
	C185.355820,513.000000 93.211639,513.000000 1.033728,513.000000 
	C1.033728,342.397461 1.033728,171.794907 1.033728,1.096182 
	C171.560867,1.096182 342.121796,1.096182 512.841370,1.096182 
	C512.841370,171.666550 512.841370,342.333252 512.841370,513.000000 
	C434.794891,513.000000 356.647430,513.000000 278.000000,513.000000 
M401.028168,301.176514 
	C404.015625,291.876251 407.615662,282.719727 409.839325,273.240265 
	C412.780884,260.700531 414.958344,247.954514 416.847809,235.205811 
	C417.884155,228.213455 418.307343,220.991043 417.851959,213.947037 
	C417.016632,201.025497 415.798187,188.087219 413.845398,175.292358 
	C412.237976,164.760590 409.337036,154.426239 406.917999,143.196915 
	C405.299286,138.658981 404.413361,133.665726 401.928162,129.666214 
	C393.572845,116.219780 381.255951,107.150711 367.053711,100.645432 
	C362.868347,98.728340 358.205414,97.853806 353.761353,96.501488 
	C353.512909,97.013741 353.264435,97.525986 353.015991,98.038239 
	C356.768616,101.616409 360.598633,105.117477 364.257782,108.788834 
	C371.852142,116.408569 375.503479,125.307060 373.015625,136.215027 
	C370.823853,145.824677 365.573700,153.204803 356.993469,157.956451 
	C350.063171,161.794388 342.418823,160.829849 335.413300,158.816330 
	C324.712372,155.740677 313.024628,154.023117 306.024628,143.550903 
	C304.215424,140.844284 302.127899,138.325058 300.205048,135.692871 
	C291.640076,123.968399 287.133392,111.118660 291.155853,96.667595 
	C292.915741,90.345078 296.383820,84.510551 298.837738,78.359291 
	C299.399536,76.951019 299.644043,74.712303 298.909729,73.595116 
	C285.137360,52.642128 271.195251,31.800734 256.970551,10.458734 
	C244.446884,29.351896 232.660446,48.158089 219.722107,66.135262 
	C214.710220,73.099014 214.269760,78.082451 218.491989,85.434700 
	C224.222046,95.412537 227.029160,106.904984 222.723160,117.992706 
	C219.315048,126.768394 213.597107,134.682388 208.585129,142.781143 
	C206.768921,145.715897 204.512634,149.071182 201.605087,150.496582 
	C195.112900,153.679382 188.232864,156.329712 181.241333,158.176895 
	C169.701904,161.225647 158.518005,162.309845 149.120178,151.821259 
	C138.307556,139.753662 136.613358,121.512535 149.158890,109.388519 
	C153.157623,105.524139 157.403671,101.915642 161.536545,98.190063 
	C159.619400,97.004562 158.766251,96.883148 157.965561,97.036209 
	C157.027695,97.215492 156.152069,97.697762 155.221024,97.938759 
	C139.986969,101.881973 127.826302,110.781723 117.498871,122.184929 
	C112.766243,127.410538 108.162270,133.143616 107.424782,141.093491 
	C107.357117,141.410751 107.289459,141.728012 107.119232,142.777664 
	C107.069405,143.513962 107.019577,144.250259 106.263924,145.342743 
	C103.845848,157.647263 100.526779,169.858261 99.237495,182.279938 
	C97.621498,197.849487 97.134277,213.594315 97.204796,229.258789 
	C97.246437,238.511017 98.499397,247.946808 100.644981,256.957825 
	C104.177155,271.792267 108.875259,286.349060 112.510887,301.625000 
	C111.872986,301.097809 111.056854,300.687347 110.623581,300.026062 
	C102.480408,287.597443 94.001015,275.366577 86.397781,262.613892 
	C80.470352,252.671997 75.666733,242.061798 70.318604,231.772018 
	C67.917259,227.151810 64.389633,224.686172 58.822388,224.899796 
	C53.630238,225.099030 50.104263,227.720657 48.635403,232.048294 
	C46.247871,239.082642 43.563908,246.398926 43.293964,253.681061 
	C42.874027,265.009552 43.721096,276.494873 45.201641,287.759888 
	C47.863510,308.013214 53.293243,327.678253 60.435333,346.808868 
	C69.211357,370.316010 80.903412,392.386871 94.057709,413.722137 
	C95.062920,415.352570 95.628075,418.237396 94.872200,419.802216 
	C91.393143,427.004364 86.964432,433.758179 83.640587,441.022522 
	C78.493019,452.272766 73.515465,463.423462 75.762733,476.701538 
	C77.816689,488.837463 91.028893,503.523895 108.893997,502.990021 
	C206.788498,502.993683 304.682983,502.997772 402.577484,502.995697 
	C403.740417,502.995667 404.903381,502.915955 406.891479,503.018066 
	C414.737732,502.470886 421.826813,500.212280 427.811890,494.747070 
	C439.954071,483.659454 441.600830,470.043335 436.064850,455.717010 
	C431.455048,443.787537 425.182556,432.488434 419.412292,421.028046 
	C417.954132,418.131927 418.301666,416.125183 419.937134,413.436615 
	C425.784637,403.823975 432.082947,394.367188 436.752625,384.182892 
	C444.679382,366.895203 452.317627,349.382019 458.508850,331.422943 
	C462.990082,318.424011 465.245850,304.610901 467.882446,291.042023 
	C469.286377,283.816986 468.945404,276.263611 470.182770,268.993042 
	C472.226868,256.982178 470.734039,245.400284 466.473907,234.253510 
	C464.725159,229.677856 461.981812,225.205734 455.626343,224.896042 
	C448.884644,224.567535 445.624573,228.158936 442.728180,233.535980 
	C434.363220,249.065323 425.931763,264.574768 416.935242,279.741364 
	C412.313446,287.532898 406.432281,294.577423 401.028168,301.176514 
z"/>
<path fill="#ECE7F6" opacity="1.000000" stroke="none" 
	d="
M406.066315,502.873413 
	C404.903381,502.915955 403.740417,502.995667 402.577484,502.995697 
	C304.682983,502.997772 206.788498,502.993683 108.393356,502.470551 
	C107.608665,471.103546 109.695305,440.417328 119.451584,411.002289 
	C124.905098,394.559998 132.906555,378.962769 139.983154,362.703613 
	C143.066025,356.796783 146.120132,351.257355 148.674088,345.496216 
	C149.507858,343.615448 149.662582,340.966492 149.060104,338.995209 
	C146.101440,329.314758 142.484726,319.831177 139.655060,310.116486 
	C134.023331,290.781982 130.460175,271.088806 130.880249,250.467987 
	C135.215439,232.220963 146.079880,220.703735 164.291687,215.929459 
	C166.776581,216.519516 168.899139,216.917938 170.931641,217.589111 
	C190.964920,224.204544 210.983246,230.865265 231.256042,237.706070 
	C237.055435,244.564407 242.604584,251.229813 247.803406,258.043335 
	C228.405365,264.851501 218.748932,279.110474 214.940506,298.556030 
	C221.197266,313.232941 230.260925,325.642822 242.258194,335.715485 
	C252.797699,344.564240 261.128601,344.453674 271.858887,335.794983 
	C283.619385,326.304962 291.557709,313.776550 298.957611,300.875427 
	C299.359558,300.174683 299.039612,299.059875 299.083984,297.727936 
	C294.739655,278.517059 285.124420,264.135834 265.939819,257.547150 
	C271.674042,250.656891 277.335602,244.102646 283.376221,237.414825 
	C290.697510,234.988663 297.625793,232.652802 304.584778,230.412354 
	C319.758026,225.527283 334.946899,220.690735 350.489136,215.921906 
	C368.616638,221.118164 379.259583,232.856689 383.182312,251.210464 
	C382.242889,262.483002 382.551422,273.621063 380.186554,284.159180 
	C376.162292,302.091736 370.411774,319.634583 365.512512,337.375977 
	C364.890778,339.627380 364.136475,342.479004 364.972198,344.380859 
	C367.902130,351.048279 371.500641,357.421844 374.921417,364.263855 
	C399.420746,407.543732 407.120911,454.224884 406.066315,502.873413 
M165.771667,310.020660 
	C168.268860,310.076630 170.768646,310.235474 173.262817,310.172180 
	C192.182037,309.691925 202.092316,300.889648 203.522095,282.163361 
	C204.624542,267.724182 201.368744,254.231766 190.639465,243.651459 
	C179.978012,233.138077 166.765335,233.179001 156.119476,243.559158 
	C148.058273,251.419189 142.151321,260.851257 140.524734,271.978180 
	C137.615509,291.879333 143.353775,307.887482 165.771667,310.020660 
M317.881531,250.463501 
	C310.984253,261.757721 309.229797,274.055481 311.106140,286.933044 
	C312.828156,298.751190 320.037018,306.905670 331.751251,308.923737 
	C338.507416,310.087677 345.729980,310.280457 352.497742,309.270081 
	C365.593597,307.314880 372.257721,299.754730 373.877045,286.642365 
	C376.176147,268.025391 368.881134,253.112488 355.204529,241.164398 
	C346.854431,233.869629 336.455475,233.839584 327.265289,240.633514 
	C323.855133,243.154526 321.230133,246.737610 317.881531,250.463501 
z"/>
<path fill="#B0BEC5" opacity="1.000000" stroke="none" 
	d="
M248.153717,257.895233 
	C242.604584,251.229813 237.055435,244.564407 231.166824,237.338303 
	C222.758011,226.888626 214.805405,216.900345 206.538223,207.179611 
	C204.438812,204.711060 203.898605,203.037399 205.963013,200.383347 
	C208.405121,197.243774 210.469391,193.808502 212.669586,190.482971 
	C216.095642,185.304596 219.498215,180.110687 222.910751,174.923355 
	C222.622330,174.621384 222.333893,174.319397 222.045471,174.017426 
	C220.204559,175.251144 218.347015,176.460831 216.525330,177.722336 
	C197.295990,191.038513 176.377457,196.407425 153.254303,190.962082 
	C135.074799,186.680939 119.506027,178.503723 111.357849,160.557327 
	C109.154091,155.703522 108.393013,150.194717 106.969757,144.986557 
	C107.019577,144.250259 107.069405,143.513962 107.363098,142.268188 
	C107.842743,141.510834 107.946030,141.216461 107.916801,140.875595 
	C108.162270,133.143616 112.766243,127.410538 117.498871,122.184929 
	C127.826302,110.781723 139.986969,101.881973 155.221024,97.938759 
	C156.152069,97.697762 157.027695,97.215492 157.965561,97.036209 
	C158.766251,96.883148 159.619400,97.004562 161.536545,98.190063 
	C157.403671,101.915642 153.157623,105.524139 149.158890,109.388519 
	C136.613358,121.512535 138.307556,139.753662 149.120178,151.821259 
	C158.518005,162.309845 169.701904,161.225647 181.241333,158.176895 
	C188.232864,156.329712 195.112900,153.679382 201.605087,150.496582 
	C204.512634,149.071182 206.768921,145.715897 208.585129,142.781143 
	C213.597107,134.682388 219.315048,126.768394 222.723160,117.992706 
	C227.029160,106.904984 224.222046,95.412537 218.491989,85.434700 
	C214.269760,78.082451 214.710220,73.099014 219.722107,66.135262 
	C232.660446,48.158089 244.446884,29.351896 256.970551,10.458734 
	C271.195251,31.800734 285.137360,52.642128 298.909729,73.595116 
	C299.644043,74.712303 299.399536,76.951019 298.837738,78.359291 
	C296.383820,84.510551 292.915741,90.345078 291.155853,96.667595 
	C287.133392,111.118660 291.640076,123.968399 300.205048,135.692871 
	C302.127899,138.325058 304.215424,140.844284 306.024628,143.550903 
	C313.024628,154.023117 324.712372,155.740677 335.413300,158.816330 
	C342.418823,160.829849 350.063171,161.794388 356.993469,157.956451 
	C365.573700,153.204803 370.823853,145.824677 373.015625,136.215027 
	C375.503479,125.307060 371.852142,116.408569 364.257782,108.788834 
	C360.598633,105.117477 356.768616,101.616409 353.015991,98.038239 
	C353.264435,97.525986 353.512909,97.013741 353.761353,96.501488 
	C358.205414,97.853806 362.868347,98.728340 367.053711,100.645432 
	C381.255951,107.150711 393.572845,116.219780 401.928162,129.666214 
	C404.413361,133.665726 405.299286,138.658981 406.683655,143.887848 
	C405.962067,158.812988 399.928101,170.587585 388.443787,178.490692 
	C364.032837,195.289490 337.870636,198.059021 310.712433,185.266312 
	C304.298279,182.244965 298.281403,178.380081 291.963043,174.686890 
	C291.617737,174.203888 291.330170,174.054916 290.946594,173.886841 
	C290.840851,173.776001 290.770142,173.801956 290.699402,173.827911 
	C290.806763,173.880051 290.914093,173.932175 291.108215,174.212524 
	C291.362366,174.736908 291.605316,174.944809 291.980164,175.409241 
	C295.860504,181.579254 299.659332,187.421143 303.513824,193.226013 
	C310.653381,203.978088 310.475006,203.804520 302.153320,213.508987 
	C295.487854,221.281952 289.362305,229.517914 282.997162,237.548401 
	C277.335602,244.102646 271.674042,250.656891 265.646606,257.697876 
	C262.541870,261.173309 259.802979,264.161987 257.904877,266.233185 
	C254.414398,263.248566 251.284058,260.571899 248.153717,257.895233 
M243.774597,125.212143 
	C238.117889,139.416534 232.566177,153.664383 226.717697,167.789368 
	C225.517822,170.687271 225.524506,172.887466 226.937668,175.667557 
	C236.283707,194.053864 245.451920,212.530518 254.695709,230.968887 
	C255.330002,232.234070 256.107758,233.427322 256.847107,234.702866 
	C257.426025,234.263641 257.780182,234.129822 257.905060,233.880981 
	C267.978027,213.804596 278.077789,193.741165 287.987030,173.584137 
	C288.632477,172.271255 288.281281,170.007248 287.593231,168.568451 
	C275.119629,142.483932 266.524994,115.089516 259.779694,87.057106 
	C259.077728,84.139938 258.277069,81.246529 257.522247,78.342094 
	C254.585724,86.123573 252.785721,93.836929 250.706009,101.474129 
	C248.610382,109.169838 246.236923,116.789894 243.774597,125.212143 
z"/>
<path fill="#7E57C2" opacity="1.000000" stroke="none" 
	d="
M139.759903,362.984772 
	C132.906555,378.962769 124.905098,394.559998 119.451584,411.002289 
	C109.695305,440.417328 107.608665,471.103546 107.928467,502.408752 
	C91.028893,503.523895 77.816689,488.837463 75.762733,476.701538 
	C73.515465,463.423462 78.493019,452.272766 83.640587,441.022522 
	C86.964432,433.758179 91.393143,427.004364 94.872200,419.802216 
	C95.628075,418.237396 95.062920,415.352570 94.057709,413.722137 
	C80.903412,392.386871 69.211357,370.316010 60.435333,346.808868 
	C53.293243,327.678253 47.863510,308.013214 45.201641,287.759888 
	C43.721096,276.494873 42.874027,265.009552 43.293964,253.681061 
	C43.563908,246.398926 46.247871,239.082642 48.635403,232.048294 
	C50.104263,227.720657 53.630238,225.099030 58.822388,224.899796 
	C64.389633,224.686172 67.917259,227.151810 70.318604,231.772018 
	C75.666733,242.061798 80.470352,252.671997 86.397781,262.613892 
	C94.001015,275.366577 102.480408,287.597443 110.623581,300.026062 
	C111.056854,300.687347 111.872986,301.097809 112.776054,301.298218 
	C113.041222,300.971436 112.978767,300.949890 112.675125,301.202698 
	C112.887497,302.280487 113.403503,303.105438 114.079475,304.242615 
	C115.801025,307.448120 117.604172,310.238800 118.884056,313.251740 
	C125.913429,329.799377 132.814667,346.401398 139.759903,362.984772 
z"/>
<path fill="#7E57C2" opacity="1.000000" stroke="none" 
	d="
M406.478882,502.945740 
	C407.120911,454.224884 399.420746,407.543732 374.975037,363.892792 
	C375.626740,361.120667 376.143341,359.007751 376.999542,357.042877 
	C385.006561,338.667267 393.071838,320.317078 401.120239,301.959534 
	C406.432281,294.577423 412.313446,287.532898 416.935242,279.741364 
	C425.931763,264.574768 434.363220,249.065323 442.728180,233.535980 
	C445.624573,228.158936 448.884644,224.567535 455.626343,224.896042 
	C461.981812,225.205734 464.725159,229.677856 466.473907,234.253510 
	C470.734039,245.400284 472.226868,256.982178 470.182770,268.993042 
	C468.945404,276.263611 469.286377,283.816986 467.882446,291.042023 
	C465.245850,304.610901 462.990082,318.424011 458.508850,331.422943 
	C452.317627,349.382019 444.679382,366.895203 436.752625,384.182892 
	C432.082947,394.367188 425.784637,403.823975 419.937134,413.436615 
	C418.301666,416.125183 417.954132,418.131927 419.412292,421.028046 
	C425.182556,432.488434 431.455048,443.787537 436.064850,455.717010 
	C441.600830,470.043335 439.954071,483.659454 427.811890,494.747070 
	C421.826813,500.212280 414.737732,502.470886 406.478882,502.945740 
z"/>
<path fill="#79909C" opacity="1.000000" stroke="none" 
	d="
M401.074188,301.568024 
	C393.071838,320.317078 385.006561,338.667267 376.999542,357.042877 
	C376.143341,359.007751 375.626740,361.120667 374.898926,363.535950 
	C371.500641,357.421844 367.902130,351.048279 364.972198,344.380859 
	C364.136475,342.479004 364.890778,339.627380 365.512512,337.375977 
	C370.411774,319.634583 376.162292,302.091736 380.186554,284.159180 
	C382.551422,273.621063 382.242889,262.483002 383.414734,250.900330 
	C384.305481,234.956253 384.918365,219.726639 385.587830,203.090942 
	C372.810333,207.683060 361.469849,211.758713 350.129395,215.834351 
	C334.946899,220.690735 319.758026,225.527283 304.584778,230.412354 
	C297.625793,232.652802 290.697510,234.988663 283.376221,237.414825 
	C289.362305,229.517914 295.487854,221.281952 302.153320,213.508987 
	C310.475006,203.804520 310.653381,203.978088 303.513824,193.226013 
	C299.659332,187.421143 295.860504,181.579254 292.021881,175.370148 
	C292.007202,174.986221 292.081787,174.903229 292.081787,174.903229 
	C298.281403,178.380081 304.298279,182.244965 310.712433,185.266312 
	C337.870636,198.059021 364.032837,195.289490 388.443787,178.490692 
	C399.928101,170.587585 405.962067,158.812988 406.729370,144.291580 
	C409.337036,154.426239 412.237976,164.760590 413.845398,175.292358 
	C415.798187,188.087219 417.016632,201.025497 417.851959,213.947037 
	C418.307343,220.991043 417.884155,228.213455 416.847809,235.205811 
	C414.958344,247.954514 412.780884,260.700531 409.839325,273.240265 
	C407.615662,282.719727 404.015625,291.876251 401.074188,301.568024 
z"/>
<path fill="#78909C" opacity="1.000000" stroke="none" 
	d="
M139.983154,362.703613 
	C132.814667,346.401398 125.913429,329.799377 118.884056,313.251740 
	C117.604172,310.238800 115.801025,307.448120 114.113029,303.893799 
	C113.650665,302.471771 113.314720,301.710846 112.978767,300.949890 
	C112.978767,300.949890 113.041222,300.971436 113.061539,300.997192 
	C108.875259,286.349060 104.177155,271.792267 100.644981,256.957825 
	C98.499397,247.946808 97.246437,238.511017 97.204796,229.258789 
	C97.134277,213.594315 97.621498,197.849487 99.237495,182.279938 
	C100.526779,169.858261 103.845848,157.647263 106.616837,145.164642 
	C108.393013,150.194717 109.154091,155.703522 111.357849,160.557327 
	C119.506027,178.503723 135.074799,186.680939 153.254303,190.962082 
	C176.377457,196.407425 197.295990,191.038513 216.525330,177.722336 
	C218.347015,176.460831 220.204559,175.251144 222.045471,174.017426 
	C222.333893,174.319397 222.622330,174.621384 222.910751,174.923355 
	C219.498215,180.110687 216.095642,185.304596 212.669586,190.482971 
	C210.469391,193.808502 208.405121,197.243774 205.963013,200.383347 
	C203.898605,203.037399 204.438812,204.711060 206.538223,207.179611 
	C214.805405,216.900345 222.758011,226.888626 230.916595,237.145386 
	C210.983246,230.865265 190.964920,224.204544 170.931641,217.589111 
	C168.899139,216.917938 166.776581,216.519516 164.087891,215.653595 
	C152.265579,211.451721 141.051193,207.590790 129.457321,203.599197 
	C129.457321,215.857376 129.342209,227.252197 129.518829,238.642487 
	C129.581955,242.713470 130.350830,246.773514 130.797577,250.838547 
	C130.460175,271.088806 134.023331,290.781982 139.655060,310.116486 
	C142.484726,319.831177 146.101440,329.314758 149.060104,338.995209 
	C149.662582,340.966492 149.507858,343.615448 148.674088,345.496216 
	C146.120132,351.257355 143.066025,356.796783 139.983154,362.703613 
z"/>
<path fill="#78909C" opacity="1.000000" stroke="none" 
	d="
M107.670792,140.984543 
	C107.946030,141.216461 107.842743,141.510834 107.414383,141.901978 
	C107.289459,141.728012 107.357117,141.410751 107.670792,140.984543 
z"/>
<path fill="#232323" opacity="1.000000" stroke="none" 
	d="
M165.309723,309.998474 
	C143.353775,307.887482 137.615509,291.879333 140.524734,271.978180 
	C142.151321,260.851257 148.058273,251.419189 156.119476,243.559158 
	C166.765335,233.179001 179.978012,233.138077 190.639465,243.651459 
	C201.368744,254.231766 204.624542,267.724182 203.522095,282.163361 
	C202.092316,300.889648 192.182037,309.691925 173.262817,310.172180 
	C170.768646,310.235474 168.268860,310.076630 165.309723,309.998474 
M192.260071,256.567535 
	C191.825134,255.320084 191.517334,254.009094 190.931549,252.837036 
	C189.135818,249.244202 186.352081,245.726028 182.320206,246.577820 
	C179.246231,247.227249 175.725037,249.964111 174.168381,252.756546 
	C170.386581,259.540680 170.718994,266.858704 174.931763,273.538940 
	C178.915894,279.856598 185.773102,279.827850 189.862503,273.601685 
	C193.123413,268.636902 193.697708,263.118774 192.260071,256.567535 
z"/>
<path fill="#232323" opacity="1.000000" stroke="none" 
	d="
M318.064270,250.149918 
	C321.230133,246.737610 323.855133,243.154526 327.265289,240.633514 
	C336.455475,233.839584 346.854431,233.869629 355.204529,241.164398 
	C368.881134,253.112488 376.176147,268.025391 373.877045,286.642365 
	C372.257721,299.754730 365.593597,307.314880 352.497742,309.270081 
	C345.729980,310.280457 338.507416,310.087677 331.751251,308.923737 
	C320.037018,306.905670 312.828156,298.751190 311.106140,286.933044 
	C309.229797,274.055481 310.984253,261.757721 318.064270,250.149918 
M363.618011,259.992065 
	C362.862701,257.471161 362.756470,254.398514 361.195648,252.562317 
	C359.009277,249.990219 355.804688,246.860275 352.914246,246.733276 
	C350.320465,246.619308 346.773926,249.713821 345.034576,252.318878 
	C340.893799,258.520691 341.789032,268.863770 346.112305,274.384125 
	C350.118011,279.498962 356.528931,279.870300 359.765900,274.321228 
	C362.057770,270.392212 362.461151,265.361664 363.618011,259.992065 
z"/>
<path fill="#FFCA29" opacity="1.000000" stroke="none" 
	d="
M247.803406,258.043335 
	C251.284058,260.571899 254.414398,263.248566 257.904877,266.233185 
	C259.802979,264.161987 262.541870,261.173309 265.573975,258.033875 
	C285.124420,264.135834 294.739655,278.517059 298.758850,297.587524 
	C295.831116,296.059967 293.449951,293.839996 290.640808,292.557068 
	C285.343170,290.137573 279.968414,286.771240 273.524536,290.683350 
	C270.618469,292.604889 268.028778,294.369934 265.473450,296.183441 
	C259.020935,300.762878 255.277878,300.783875 248.760040,296.299622 
	C245.913696,294.341339 243.020813,292.450714 239.871170,290.279480 
	C235.774887,290.168640 231.627716,289.412354 228.218048,290.664429 
	C223.543381,292.381042 219.428238,295.621429 215.073303,298.208801 
	C218.748932,279.110474 228.405365,264.851501 247.803406,258.043335 
z"/>
<path fill="#FE7003" opacity="1.000000" stroke="none" 
	d="
M273.856567,290.548950 
	C279.968414,286.771240 285.343170,290.137573 290.640808,292.557068 
	C293.449951,293.839996 295.831116,296.059967 298.730591,297.997375 
	C299.039612,299.059875 299.359558,300.174683 298.957611,300.875427 
	C291.557709,313.776550 283.619385,326.304962 271.858887,335.794983 
	C261.128601,344.453674 252.797699,344.564240 242.258194,335.715485 
	C230.260925,325.642822 221.197266,313.232941 214.940521,298.556061 
	C219.428238,295.621429 223.543381,292.381042 228.218048,290.664429 
	C231.627716,289.412354 235.774887,290.168640 239.504303,290.420776 
	C236.416595,292.494751 233.330826,294.041901 230.441864,295.895691 
	C227.065155,298.062531 226.756622,300.687988 229.011673,304.226379 
	C234.756546,313.240631 240.938004,321.809662 249.644867,328.246918 
	C255.579773,332.634766 258.736084,333.220245 264.286224,328.202728 
	C270.746277,322.362610 276.747223,315.807709 281.925751,308.807220 
	C289.029663,299.203918 287.293091,295.143127 275.770355,291.095764 
	C275.145477,290.876312 274.495087,290.729553 273.856567,290.548950 
z"/>
<path fill="#304F5F" opacity="1.000000" stroke="none" 
	d="
M350.489136,215.921906 
	C361.469849,211.758713 372.810333,207.683060 385.587830,203.090942 
	C384.918365,219.726639 384.305481,234.956253 383.460236,250.496002 
	C379.259583,232.856689 368.616638,221.118164 350.489136,215.921906 
z"/>
<path fill="#314F5F" opacity="1.000000" stroke="none" 
	d="
M130.880249,250.467987 
	C130.350830,246.773514 129.581955,242.713470 129.518829,238.642487 
	C129.342209,227.252197 129.457321,215.857376 129.457321,203.599197 
	C141.051193,207.590790 152.265579,211.451721 163.683777,215.588531 
	C146.079880,220.703735 135.215439,232.220963 130.880249,250.467987 
z"/>
<path fill="#FECA2A" opacity="1.000000" stroke="none" 
	d="
M243.879883,124.827621 
	C246.236923,116.789894 248.610382,109.169838 250.706009,101.474129 
	C252.785721,93.836929 254.585724,86.123573 257.522247,78.342094 
	C258.277069,81.246529 259.077728,84.139938 259.779694,87.057106 
	C266.524994,115.089516 275.119629,142.483932 287.593231,168.568451 
	C288.281281,170.007248 288.632477,172.271255 287.987030,173.584137 
	C278.077789,193.741165 267.978027,213.804596 257.905060,233.880981 
	C257.780182,234.129822 257.426025,234.263641 256.847107,234.702866 
	C256.107758,233.427322 255.330002,232.234070 254.695709,230.968887 
	C245.451920,212.530518 236.283707,194.053864 226.937668,175.667557 
	C225.524506,172.887466 225.517822,170.687271 226.717697,167.789368 
	C232.566177,153.664383 238.117889,139.416534 243.879883,124.827621 
z"/>
<path fill="#79909C" opacity="1.000000" stroke="none" 
	d="
M290.981598,174.023651 
	C291.330170,174.054916 291.617737,174.203888 291.963043,174.686890 
	C292.081787,174.903229 292.007202,174.986221 291.965515,175.025330 
	C291.605316,174.944809 291.362366,174.736908 291.097137,174.221130 
	C290.999329,174.001526 290.981598,174.023651 290.981598,174.023651 
z"/>
<path fill="#79909C" opacity="1.000000" stroke="none" 
	d="
M291.010376,173.992920 
	C290.914093,173.932175 290.806763,173.880051 290.699402,173.827911 
	C290.770142,173.801956 290.840851,173.776001 290.946594,173.886841 
	C290.981598,174.023651 290.999329,174.001526 291.010376,173.992920 
z"/>
<path fill="#000000" opacity="1.000000" stroke="none" 
	d="
M112.675125,301.202698 
	C113.314720,301.710846 113.650665,302.471771 113.953064,303.581543 
	C113.403503,303.105438 112.887497,302.280487 112.675125,301.202698 
z"/>
<path fill="#FBFBFB" opacity="1.000000" stroke="none" 
	d="
M192.378616,256.968872 
	C193.697708,263.118774 193.123413,268.636902 189.862503,273.601685 
	C185.773102,279.827850 178.915894,279.856598 174.931763,273.538940 
	C170.718994,266.858704 170.386581,259.540680 174.168381,252.756546 
	C175.725037,249.964111 179.246231,247.227249 182.320206,246.577820 
	C186.352081,245.726028 189.135818,249.244202 190.931549,252.837036 
	C191.517334,254.009094 191.825134,255.320084 192.378616,256.968872 
z"/>
<path fill="#FAFAFA" opacity="1.000000" stroke="none" 
	d="
M363.662781,260.407440 
	C362.461151,265.361664 362.057770,270.392212 359.765900,274.321228 
	C356.528931,279.870300 350.118011,279.498962 346.112305,274.384125 
	C341.789032,268.863770 340.893799,258.520691 345.034576,252.318878 
	C346.773926,249.713821 350.320465,246.619308 352.914246,246.733276 
	C355.804688,246.860275 359.009277,249.990219 361.195648,252.562317 
	C362.756470,254.398514 362.862701,257.471161 363.662781,260.407440 
z"/>
<path fill="#9C2410" opacity="1.000000" stroke="none" 
	d="
M273.524536,290.683350 
	C274.495087,290.729553 275.145477,290.876312 275.770355,291.095764 
	C287.293091,295.143127 289.029663,299.203918 281.925751,308.807220 
	C276.747223,315.807709 270.746277,322.362610 264.286224,328.202728 
	C258.736084,333.220245 255.579773,332.634766 249.644867,328.246918 
	C240.938004,321.809662 234.756546,313.240631 229.011673,304.226379 
	C226.756622,300.687988 227.065155,298.062531 230.441864,295.895691 
	C233.330826,294.041901 236.416595,292.494751 239.782181,290.670654 
	C243.020813,292.450714 245.913696,294.341339 248.760040,296.299622 
	C255.277878,300.783875 259.020935,300.762878 265.473450,296.183441 
	C268.028778,294.369934 270.618469,292.604889 273.524536,290.683350 
z"/>
</svg>